<svg width="32" height="28" viewBox="0 0 32 28" fill="none" xmlns="http://www.w3.org/2000/svg">
<path d="M31.4885 12.7568L19.9322 1.20016C19.6023 0.870281 19.1626 0.689209 18.6938 0.689209C18.2245 0.689209 17.7851 0.870541 17.4552 1.20016L16.406 2.24965C16.0763 2.57901 15.8947 3.01895 15.8947 3.48802C15.8947 3.95682 16.0763 4.41159 16.406 4.74095L23.1478 11.4976H1.72876C0.76305 11.4976 0 12.2536 0 13.2196V14.7033C0 15.6693 0.76305 16.5015 1.72876 16.5015H23.2242L16.4062 23.2959C16.0766 23.6257 15.895 24.0537 15.895 24.5228C15.895 24.9913 16.0766 25.4255 16.4062 25.7552L17.4554 26.8013C17.7853 27.1311 18.2247 27.3109 18.6941 27.3109C19.1629 27.3109 19.6025 27.1288 19.9324 26.7989L31.4887 15.2426C31.8194 14.9117 32.0013 14.4699 32 14.0003C32.001 13.5292 31.8194 13.0872 31.4885 12.7568Z" fill="white"/>
</svg>
