<svg width="32" height="28" viewBox="0 0 32 28" fill="none" xmlns="http://www.w3.org/2000/svg">
<path d="M0.511514 15.2432L12.0678 26.7998C12.3977 27.1297 12.8374 27.3108 13.3062 27.3108C13.7755 27.3108 14.2149 27.1295 14.5448 26.7998L15.594 25.7503C15.9237 25.421 16.1053 24.9811 16.1053 24.512C16.1053 24.0432 15.9237 23.5884 15.594 23.259L8.85225 16.5024L30.2712 16.5024C31.237 16.5024 32 15.7464 32 14.7804L32 13.2967C32 12.3307 31.237 11.4985 30.2712 11.4985L8.77576 11.4985L15.5938 4.70414C15.9234 4.37426 16.105 3.9463 16.105 3.47722C16.105 3.00868 15.9234 2.57447 15.5938 2.24484L14.5446 1.19874C14.2147 0.868857 13.7753 0.689087 13.3059 0.689087C12.8371 0.689087 12.3975 0.871197 12.0676 1.20108L0.511253 12.7574C0.180589 13.0883 -0.00126146 13.5301 3.93107e-05 13.9997C-0.00100214 14.4708 0.180589 14.9128 0.511514 15.2432Z" fill="white"/>
</svg>
