<svg width="16" height="16" viewBox="0 0 16 16" fill="none" xmlns="http://www.w3.org/2000/svg">
<path d="M15.986 6.17979C15.9522 6.07612 15.8625 6.00051 15.7546 5.98476L10.5737 5.23183L8.25675 0.53725C8.20864 0.439303 8.10897 0.377441 8.00014 0.377441C7.89131 0.377441 7.79136 0.439303 7.74353 0.53725L5.42631 5.23211L0.245439 5.98504C0.137468 6.0008 0.0481127 6.07612 0.0140318 6.18008C-0.0194764 6.28347 0.00830388 6.39745 0.0864896 6.47335L3.83568 10.1277L2.95043 15.288C2.93211 15.3954 2.97621 15.5039 3.06413 15.5681C3.15263 15.6328 3.26976 15.6411 3.36571 15.5899L8.00014 13.1538L12.634 15.5899C12.6758 15.6119 12.7219 15.6228 12.7675 15.6228C12.8267 15.6228 12.8857 15.6045 12.9359 15.5681C13.0241 15.5039 13.0682 15.3954 13.0496 15.288L12.1646 10.128L15.9138 6.47335C15.9917 6.39688 16.0198 6.28318 15.986 6.17979Z" fill="#EBBD1F"/>
</svg>
