<svg width="22" height="22" viewBox="0 0 22 22" fill="none" xmlns="http://www.w3.org/2000/svg">
<g clip-path="url(#clip0_0:305)">
<path fill-rule="evenodd" clip-rule="evenodd" d="M13.1789 9.88346H9.00699V11.5592H13.1789C13.4896 11.5592 13.7883 11.7595 13.7883 12.0319V14.8248C13.7883 15.0066 13.7427 15.1078 13.6397 15.2042C13.5543 15.2842 13.387 15.3834 13.2258 15.3834H11.3977C11.3977 15.9723 11.493 16.4576 10.7414 16.4576C10.1364 16.4576 10.2258 15.7288 10.2258 15.3834H8.39772C7.70332 15.3834 7.59293 14.3091 8.44458 14.3091H12.6165V12.6334H8.39772C8.14492 12.6334 7.83524 12.4356 7.83524 12.0748V9.36773C7.83524 9.03148 8.07776 8.80911 8.44458 8.80911H10.2258V8.29351C10.2258 7.48211 11.3977 7.58907 11.3977 8.20758V8.80917H13.1789C14.0107 8.80917 13.9797 9.8834 13.1789 9.8834L13.1789 9.88346ZM7.22576 0.473308C7.22576 0.822835 7.34803 1.11786 7.88204 1.11786H10.1789V2.23505C8.02817 2.23505 6.08717 3.08177 4.46942 4.09124C3.59321 4.63794 2.49471 5.68549 1.90047 6.50593C-0.815087 10.255 -0.619015 14.8883 2.47659 18.4048C2.606 18.5518 2.6444 18.5907 2.78521 18.7235C3.12769 19.0468 2.93938 18.9487 3.46199 19.3493C3.84434 19.6423 3.92093 19.782 4.53475 20.1705C6.17692 21.2101 8.30105 22.0006 10.4601 22.0006C12.1551 22.0006 12.9389 21.9046 14.4743 21.4264C15.7705 21.0227 16.7441 20.4141 17.7997 19.6623L18.4876 19.0896C21.2537 16.554 22.4577 12.3423 21.0406 8.90741L20.6654 8.04818C20.1354 6.91951 18.8932 5.3291 17.9133 4.64134C16.6201 3.7337 16.3894 3.48612 14.6991 2.86107C13.8112 2.53276 12.4417 2.23511 11.4445 2.23511V1.11792H13.7413C14.6852 1.11792 14.5484 0.000732422 13.8819 0.000732422H7.7413C7.48962 0.000732422 7.22569 0.242663 7.22569 0.473372L7.22576 0.473308ZM0.00704482 4.98503C0.00704482 5.26511 0.271039 5.50063 0.663324 5.50063C1.01392 5.50063 1.96581 4.50001 2.24533 4.24378C2.52786 3.9848 3.61644 3.11441 3.61644 2.79361C3.61644 2.42491 3.36552 2.19202 3.00703 2.19202C2.59593 2.19202 1.68859 3.16423 1.37815 3.44887C1.11668 3.68855 0.889615 3.89669 0.628138 4.13638C0.388067 4.35644 0.00704482 4.57882 0.00704482 4.98503ZM18.007 2.70769C18.007 3.11403 18.3203 3.2742 18.6281 3.55634L20.1047 4.90988C20.2962 5.08544 20.639 5.50069 20.9602 5.50069C21.3416 5.50069 21.6165 5.28236 21.6165 4.94207C21.6165 4.59434 21.2087 4.33201 20.9954 4.13644L19.4953 2.76142C19.282 2.56585 18.9958 2.19209 18.6164 2.19209C18.3021 2.19209 18.007 2.42472 18.007 2.70769Z" fill="white"/>
</g>
<defs>
<clipPath id="clip0_0:305">
<rect width="21.6383" height="22" fill="white"/>
</clipPath>
</defs>
</svg>
