<svg width="24" height="22" viewBox="0 0 24 22" fill="none" xmlns="http://www.w3.org/2000/svg">
<g clip-path="url(#clip0_0:308)">
<path fill-rule="evenodd" clip-rule="evenodd" d="M3.14059 0.773464C3.14059 1.17599 3.43526 1.32287 3.73826 1.60061C3.98406 1.82594 4.19556 2.01981 4.44137 2.24513C5.10727 2.85554 5.62497 3.11795 5.62497 3.99609C5.62497 4.8668 4.21031 5.65956 3.24562 4.75919C2.99481 4.52511 2.77291 4.32504 2.51951 4.09278L1.41388 3.08678C0.907938 2.70576 0.300682 2.84094 0.151304 3.44732C-0.170223 4.75288 0.0329855 5.91035 0.815637 6.9867L1.17842 7.42758C1.94323 8.29489 3.27664 8.98046 4.49997 8.98046C5.03999 8.98046 5.34601 8.99818 5.88732 8.92019C6.03613 8.89875 6.52082 8.80451 6.60934 8.7656C6.93041 9.20515 14.3906 15.7845 14.3906 15.9414C14.3906 16.2017 14.3326 16.3426 14.2841 16.5742C13.954 18.153 14.4434 19.6085 15.6443 20.7218C15.7695 20.8379 15.8111 20.8642 15.944 20.9627C16.074 21.059 16.1004 21.0985 16.2555 21.1927C16.518 21.3521 16.6845 21.4389 16.9685 21.5704C17.5521 21.8408 18.1665 21.9762 18.7949 22H19.2031C19.562 21.9868 19.9243 21.9395 20.2869 21.8621C20.8928 21.7328 21.0523 21.1114 20.6378 20.7421L19.5351 19.7334C18.9914 19.235 18.3749 18.8466 18.3749 18.0469C18.3749 17.7351 18.6215 17.3567 18.8067 17.1966C19.0157 17.0159 19.3925 16.8437 19.7812 16.8437C20.9989 16.8437 22.3958 19.1211 23.0624 19.1211C23.4517 19.1211 23.717 19.0539 23.8518 18.5986C23.9358 18.3152 23.9848 18.0099 23.9999 17.6983V17.2812C23.9712 16.6772 23.8184 16.0748 23.5471 15.583C22.7745 14.1821 21.2381 13.0195 19.4999 13.0195C18.9816 13.0195 18.6684 13.0022 18.153 13.0739C17.9377 13.1039 17.7173 13.1914 17.4374 13.1914C17.4327 13.1914 9.63462 6.10523 9.60929 6.01562C9.59019 5.94799 9.84367 5.17477 9.84367 4.81249C9.84367 3.99423 9.79615 3.34124 9.39092 2.60644C8.97579 1.85374 8.76391 1.63413 8.16853 1.10584C8.06473 1.01374 7.9779 0.958477 7.85522 0.877404C7.36636 0.554305 6.87532 0.334306 6.28736 0.166172C6.03181 0.0930846 5.57053 0.0202419 5.07862 0H4.5653C3.81879 0.0339349 3.14052 0.230715 3.14052 0.773428L3.14059 0.773464Z" fill="white"/>
<path fill-rule="evenodd" clip-rule="evenodd" d="M3.65627 19.4219C3.28156 19.4219 2.95316 19.148 2.95316 18.8203C2.95316 18.4489 3.19888 18.3157 3.41019 18.1221C3.62479 17.9254 3.80499 17.7602 4.01955 17.5635L7.08987 14.749C7.49227 14.3802 7.49281 14.2656 8.01563 14.2656C8.3754 14.2656 8.57815 14.5664 8.57815 14.9532C8.57815 15.2297 8.24604 15.4509 8.07424 15.6084L4.41798 18.96C4.22467 19.1372 4.00904 19.4219 3.65627 19.4219V19.4219ZM7.68663e-06 19.2929C7.68663e-06 19.8361 0.0246112 20.0189 0.253225 20.5218C0.618572 21.3255 1.68172 22 2.67186 22C4.11494 22 4.55452 21.4988 5.47265 20.6572L9.50388 16.9619C9.69738 16.7846 11.4262 15.2818 11.4843 15.0821L7.55848 11.462C7.33797 11.5242 5.71578 13.0867 5.51948 13.2666L1.48825 16.9619C1.14873 17.2732 0.791828 17.5675 0.515191 17.9176C0.264763 18.2346 -3.05176e-05 18.7496 -3.05176e-05 19.293L7.68663e-06 19.2929Z" fill="white"/>
<path fill-rule="evenodd" clip-rule="evenodd" d="M17.625 2.66408C17.625 2.99923 17.9172 3.2574 18.1406 3.39454L13.4179 7.74507L15.3863 9.57167C15.8164 9.31322 17.1714 7.84926 17.7656 7.4336C18.3438 7.02915 19.7221 5.55163 20.1562 5.28516C20.3684 5.41544 20.4995 5.64983 20.7252 5.75209C21.4394 6.07578 21.7529 5.38815 21.9869 5.02972L23.657 2.47861C23.8785 2.13832 23.994 1.91993 24 1.73338V1.70228C23.9877 1.35102 23.5716 1.09849 22.7227 0.311438C22.5096 0.113817 22.3307 0.0199617 22.1555 0H22.009C21.6974 0.0337948 21.3703 0.274456 20.8568 0.556196L17.9888 2.13818C17.7919 2.25875 17.625 2.49623 17.625 2.66405V2.66408Z" fill="white"/>
</g>
<defs>
<clipPath id="clip0_0:308">
<rect width="24" height="22" fill="white"/>
</clipPath>
</defs>
</svg>
