<svg width="22" height="22" viewBox="0 0 22 22" fill="none" xmlns="http://www.w3.org/2000/svg">
<g clip-path="url(#clip0_0:314)">
<path fill-rule="evenodd" clip-rule="evenodd" d="M7.17185 7.90637C7.17185 7.51528 7.49972 7.26186 7.92184 7.26186H11.1562C12.1646 7.26186 12.1646 8.55092 11.1562 8.55092H7.92184C7.49972 8.55092 7.17185 8.29746 7.17185 7.90637ZM1.92186 7.90637C1.92186 7.23205 2.62858 7.26186 3.04687 7.26186C3.04687 6.93928 2.99921 6.65085 3.22912 6.44065C3.72098 5.99094 4.40622 6.37828 4.40622 6.78922V7.26186C5.04699 7.26186 5.53123 7.2748 5.53123 7.9923C5.53123 8.56116 4.76981 8.55092 4.40622 8.55092C4.40622 8.89113 4.46646 9.19355 4.2079 9.40039C3.73364 9.77979 3.04687 9.48999 3.04687 8.93763V8.55092C2.62858 8.55092 1.92186 8.58069 1.92186 7.90637ZM-3.36638e-05 3.82436V18.8634C-3.36638e-05 19.4782 0.229018 19.9581 0.55045 20.2923C0.81173 20.5639 1.43234 20.9258 1.96867 20.9258H13.9686V18.1329C13.3705 18.0051 14.0006 17.832 12.6561 17.8321L2.53054 17.8327C1.12314 17.8417 1.39261 16.6326 2.20727 16.5469L11.8593 16.543C11.7766 16.4298 11.7038 16.3284 11.6154 16.208C11.4535 15.9875 11.0372 15.3211 11.0155 15.0821L2.166 15.0731C1.27043 14.9409 1.3747 13.793 2.29679 13.793H10.6405L10.5936 12.8048C10.5936 12.5662 10.6405 12.5499 10.6405 12.3321H2.29679C1.39717 12.3321 1.2645 11.2267 2.12657 11.0589C2.37779 11.01 10.5586 11.0431 11.0155 11.0431C11.0498 10.6651 11.685 9.80175 11.9056 9.53864C13.1229 8.08632 14.9117 7.30477 17.203 7.30477V3.6954C17.203 2.68685 16.2481 1.76184 15.2342 1.76184H13.3592C13.3592 2.45066 13.411 2.71588 13.0543 3.3729C12.6004 4.20888 11.6025 4.76965 10.4061 4.76965H6.79675C5.10339 4.76965 3.84363 3.57782 3.84363 2.32042V1.76184C2.53169 1.76184 1.34985 1.5643 0.550407 2.39537C0.228976 2.72956 -7.62939e-05 3.20947 -7.62939e-05 3.82432L-3.36638e-05 3.82436Z" fill="white"/>
<path fill-rule="evenodd" clip-rule="evenodd" d="M11.9531 13.0194C11.9531 14.8266 13.0581 16.3134 14.7343 17.0872C17.5448 18.3846 21.0096 16.7492 21.6144 14.0553C21.8397 13.0517 21.7674 12.1565 21.3275 11.2582C20.9662 10.5203 20.4175 9.93376 19.7414 9.44658C18.858 8.81016 17.8201 8.59363 16.6406 8.59363C15.8901 8.59363 15.2962 8.79922 14.7519 9.0107C13.7517 9.39933 12.8382 10.3481 12.3904 11.2288C12.1709 11.6604 11.9532 12.4097 11.9532 13.0194L11.9531 13.0194Z" fill="white"/>
<path fill-rule="evenodd" clip-rule="evenodd" d="M5.20308 1.33212V2.14853C5.20308 2.84341 5.80374 3.48057 6.56243 3.48057H10.6406C11.381 3.48057 11.9999 2.87444 11.9999 2.19152V1.28918C11.9999 0.600628 11.3842 0.00012207 10.6406 0.00012207H6.56243C5.80374 0.00012207 5.20308 0.637283 5.20308 1.33216V1.33212Z" fill="white"/>
<path fill-rule="evenodd" clip-rule="evenodd" d="M15.3281 20.6251C15.3281 21.3637 15.9427 22.0001 16.9218 22.0001C17.7497 22.0001 18.3749 21.3158 18.3749 20.5392V18.6486C18.189 18.6524 18.018 18.7059 17.852 18.7278C16.4674 18.9105 15.706 18.6486 15.3281 18.6486V20.6251Z" fill="white"/>
</g>
<defs>
<clipPath id="clip0_0:314">
<rect width="21.7387" height="22" fill="white"/>
</clipPath>
</defs>
</svg>
