<svg width="24" height="22" viewBox="0 0 24 22" fill="none" xmlns="http://www.w3.org/2000/svg">
<g clip-path="url(#clip0_0:321)">
<path fill-rule="evenodd" clip-rule="evenodd" d="M7.47307 2.68285C7.84699 2.52931 14.8062 2.61496 15.8613 2.61342C16.78 2.61207 16.9069 2.85556 16.9018 3.66725L16.9004 7.50979C16.9005 8.10745 17.0417 8.81578 16.458 9.01754C16.0771 9.14919 9.11911 9.07207 8.07423 9.0724C7.18891 9.07268 7.03063 8.86794 7.03459 8.06049L7.03645 4.21755C7.03636 3.53113 6.87878 2.92689 7.47303 2.68287L7.47307 2.68285ZM4.2907 2.84453L4.28828 11.5903L10.0442 11.5575C10.5292 10.0082 13.4103 10.0066 13.8922 11.5584L19.6485 11.5906L19.6594 2.89316C19.7167 1.62719 18.3279 0.491084 17.2734 0.187312C16.2927 -0.0952491 13.2809 0.0338757 12.0434 0.0338757C10.8183 0.0338757 7.7822 -0.0963034 6.78341 0.153723C5.63056 0.442335 4.21778 1.63609 4.29067 2.84455L4.2907 2.84453Z" fill="white"/>
<path fill-rule="evenodd" clip-rule="evenodd" d="M10.4075 5.23274C10.7726 5.13653 12.6358 5.18525 13.1695 5.19278C14.3659 5.20963 14.2486 6.27834 13.5866 6.44831C13.2592 6.53237 11.2444 6.49512 10.767 6.48708C9.59232 6.46726 9.62818 5.43798 10.4074 5.23274H10.4075ZM8.51316 3.99536L8.49963 7.7089H15.4359L15.4349 4.01185L8.51316 3.99536Z" fill="white"/>
<path fill-rule="evenodd" clip-rule="evenodd" d="M11.6479 11.7376C10.854 12.1186 11.42 13.2415 12.2825 12.8789C13.0485 12.5568 12.5245 11.3169 11.6479 11.7376Z" fill="white"/>
<path fill-rule="evenodd" clip-rule="evenodd" d="M16.9 18.6908C16.9381 18.0924 16.8996 17.3713 16.8996 16.7592C18.7267 16.2616 19.8943 15.139 19.7039 12.9417L13.9889 12.9524C13.6551 13.3638 13.303 14.2376 11.9678 14.2344C10.6255 14.2311 10.2936 13.3824 9.94842 12.9397L4.23307 12.9647C4.04372 15.1322 5.20407 16.265 7.03748 16.7574C7.03748 19.4459 6.7604 19.3015 8.43933 19.4108L8.44676 20.6732C7.83533 20.7417 3.73867 20.6961 2.76532 20.6961C2.06712 20.6961 0.472978 20.5928 0.180418 20.9155C-0.113707 21.2004 -0.0164785 21.615 0.246249 21.8207C0.517441 22.0331 1.00361 21.983 1.41845 21.982C3.2888 21.9777 5.15984 21.9819 7.03028 21.9819C10.2102 21.9819 9.85494 22.3325 9.85494 19.4182C11.6655 19.3068 11.2014 19.3004 11.2723 16.8211L12.6646 16.828C12.6806 17.3888 12.6035 18.3015 12.6803 18.8063C12.7786 19.4527 13.3846 19.3753 14.0824 19.4182C14.0824 22.3833 13.7471 21.9819 16.9819 21.9819L22.5938 21.9822C23.0761 21.9839 23.5055 22.0301 23.7652 21.7537C24.0256 21.4765 23.9794 21.0703 23.6796 20.8506C23.2647 20.5465 21.7352 20.6961 21.0972 20.6961L15.4873 20.6732L15.5193 19.411C16.2989 19.3586 16.8499 19.4769 16.9 18.6908V18.6908Z" fill="white"/>
</g>
<defs>
<clipPath id="clip0_0:321">
<rect width="23.9353" height="22" fill="white"/>
</clipPath>
</defs>
</svg>
