<svg width="23" height="22" viewBox="0 0 23 22" fill="none" xmlns="http://www.w3.org/2000/svg">
<g clip-path="url(#clip0_0:284)">
<path fill-rule="evenodd" clip-rule="evenodd" d="M3.65633 7.73435H11.8126C12.926 7.73435 12.926 9.0234 11.8126 9.0234H3.65633C2.54293 9.0234 2.54293 7.73435 3.65633 7.73435ZM3.65633 5.15624H11.8126C12.926 5.15624 12.926 6.44529 11.8126 6.44529H3.65633C2.54293 6.44529 2.54293 5.15624 3.65633 5.15624ZM9.13859e-05 3.1367V18.7773C9.13859e-05 19.0407 0.322024 19.3358 0.609445 19.3358H4.92191V16.371C4.92191 16.2486 4.63272 15.823 4.49236 15.4757C3.80327 13.7702 4.54428 11.8972 6.19613 10.9219C7.03191 10.4285 8.08049 10.23 9.07569 10.372C10.6861 10.6018 12.0853 11.7086 12.4882 13.1735C12.5572 13.4243 12.6882 14.0462 12.6446 14.3389C12.5434 15.0202 12.4444 15.534 12.0541 16.1199C11.9954 16.2079 11.9531 16.2335 11.9531 16.371V19.3358H14.8593C15.1468 19.3358 15.4687 19.0407 15.4687 18.7773V3.1367C15.4687 2.87323 15.1468 2.57812 14.8593 2.57812H0.609384C0.321963 2.57812 3.05176e-05 2.87323 3.05176e-05 3.1367H9.13859e-05Z" fill="white"/>
<path fill-rule="evenodd" clip-rule="evenodd" d="M7.03131 0.558574V1.28905H16.0313C16.9806 1.28905 16.875 1.98595 16.875 2.57811H18.8438C19.9572 2.57811 19.9572 3.86716 18.8438 3.86716H16.875V5.15622H18.8438C19.9572 5.15622 19.9572 6.44527 18.8438 6.44527H16.875V7.73433H18.8438C19.9572 7.73433 19.9572 9.02338 18.8438 9.02338H16.875V10.3124H18.8438C19.9572 10.3124 19.9572 11.6015 18.8438 11.6015H16.875V12.8905H18.8438C19.9572 12.8905 19.9572 14.1796 18.8438 14.1796H16.875V16.7577H21.8906C22.1781 16.7577 22.5 16.4626 22.5 16.1991V0.558574C22.5 0.295105 22.1781 0 21.8906 0H7.64067C7.35324 0 7.03131 0.295105 7.03131 0.558574Z" fill="white"/>
<path fill-rule="evenodd" clip-rule="evenodd" d="M7.03125 14.2226C6.99765 14.0238 7.17106 13.5553 7.44041 13.3086C8.38271 12.4454 9.76723 13.061 9.82999 14.1454C9.87199 14.8711 9.20207 15.4207 8.47493 15.456C8.06218 15.4761 7.71005 15.298 7.48734 15.0936C7.32549 14.9452 7.2914 14.9313 7.18592 14.7254L7.03137 14.2226H7.03125ZM5.625 14.0508V14.3086C5.625 15.5766 6.91353 16.7578 8.29689 16.7578H8.57816C9.96146 16.7578 11.2501 15.5767 11.2501 14.3086V14.0508C11.2501 12.7828 9.96152 11.6016 8.57816 11.6016H8.29689C6.91359 11.6016 5.625 12.7827 5.625 14.0508Z" fill="white"/>
<path fill-rule="evenodd" clip-rule="evenodd" d="M6.70374 21.9999C6.98757 21.9999 7.3725 21.7057 7.62242 21.5529C7.9099 21.3773 8.16408 21.2227 8.43805 21.0546C8.75377 21.2484 9.85275 21.9999 10.1724 21.9999C10.6408 21.9999 10.5476 21.5586 10.5474 21.1405V17.4882C9.03334 18.2225 7.85128 18.2267 6.32873 17.4882V21.0975C6.32867 21.5296 6.22544 21.9998 6.70374 21.9998V21.9999Z" fill="white"/>
</g>
<defs>
<clipPath id="clip0_0:284">
<rect width="22.4999" height="22" fill="white"/>
</clipPath>
</defs>
</svg>
