<svg width="24" height="22" viewBox="0 0 24 22" fill="none" xmlns="http://www.w3.org/2000/svg">
<path d="M23.8767 10.482L21.9946 8.29995L22.2838 5.53058C22.2981 5.35418 22.1867 5.18945 22.008 5.12272L19.1871 4.06636L17.9234 1.53762C17.8409 1.37402 17.6509 1.27945 17.4562 1.30514L14.4529 1.713L11.979 0.0815594C11.8209 -0.0271865 11.6033 -0.0271865 11.4451 0.0815594L9.0647 1.8476L6.04356 1.58249C5.85002 1.57005 5.66993 1.674 5.59863 1.83944L4.44623 4.4212L1.68761 5.57952C1.50914 5.65518 1.40597 5.82934 1.434 6.00778L1.87894 8.76084L0.099182 11.0285C-0.0194498 11.1735 -0.0194498 11.373 0.099182 11.518L1.98127 13.7L1.69206 16.4694C1.67782 16.6458 1.78923 16.8105 1.96792 16.8773L4.83333 17.9336L6.09696 20.4624C6.17949 20.626 6.36948 20.7205 6.56414 20.6948L9.56748 20.287L12.0413 21.9184C12.1995 22.0272 12.4171 22.0272 12.5753 21.9184L14.9557 20.1932L17.9768 20.4583C18.1693 20.4713 18.349 20.3692 18.4218 20.2054L19.5742 17.5788L22.3328 16.4205C22.5112 16.3448 22.6144 16.1706 22.5864 15.9922L22.1415 13.2391L23.9212 10.9714C24.0272 10.8175 24.009 10.6178 23.8767 10.482ZM18.5565 9.74653C18.5496 9.79038 18.5273 9.83091 18.493 9.86206L15.414 12.611L16.1392 16.4776C16.1589 16.5888 16.0765 16.6935 15.9552 16.7115C15.944 16.7132 15.9326 16.7141 15.9212 16.7141C15.8854 16.7138 15.8503 16.7054 15.8189 16.6896L12.0102 14.8584L8.20597 16.71C8.09796 16.7637 7.96292 16.7269 7.90435 16.6279C7.88016 16.587 7.87199 16.5397 7.88116 16.4939L8.60641 12.611L5.52744 9.86206C5.44017 9.78278 5.4395 9.65369 5.52599 9.57365C5.55997 9.5422 5.60424 9.52175 5.65202 9.51538L9.90563 8.94845L11.81 5.41638C11.874 5.31502 12.0155 5.28041 12.1262 5.33914C12.1611 5.3577 12.1902 5.38436 12.2104 5.41638L14.1148 8.94845L18.3684 9.51538C18.4899 9.53159 18.5742 9.63503 18.5565 9.74653Z" fill="white"/>
</svg>
