<svg width="24" height="22" viewBox="0 0 24 22" fill="none" xmlns="http://www.w3.org/2000/svg">
<g clip-path="url(#clip0_0:297)">
<path d="M15 5.95825C14.448 5.95825 14 5.54759 14 5.04159V3.66659H10V5.04159C10 5.54759 9.55203 5.95825 9.00003 5.95825C8.44803 5.95825 8.00003 5.54759 8.00003 5.04159V3.66659C8.00003 2.6555 8.89703 1.83325 10 1.83325H14C15.103 1.83325 16 2.6555 16 3.66659V5.04159C16 5.54759 15.552 5.95825 15 5.95825Z" fill="white"/>
<path d="M12.71 14.0983C12.53 14.1624 12.27 14.2083 12 14.2083C11.73 14.2083 11.47 14.1624 11.23 14.0799L0 10.6516V17.6458C0 19.0391 1.23 20.1666 2.75 20.1666H21.25C22.77 20.1666 24 19.0391 24 17.6458V10.6516L12.71 14.0983Z" fill="white"/>
<path d="M24 7.10421V9.20337L12.24 12.7967C12.16 12.8242 12.08 12.8334 12 12.8334C11.92 12.8334 11.84 12.8242 11.76 12.7967L0 9.20337V7.10421C0 5.71087 1.23 4.58337 2.75 4.58337H21.25C22.77 4.58337 24 5.71087 24 7.10421Z" fill="white"/>
</g>
<defs>
<clipPath id="clip0_0:297">
<rect width="24" height="22" fill="white"/>
</clipPath>
</defs>
</svg>
