<svg width="32" height="32" viewBox="0 0 32 32" fill="none" xmlns="http://www.w3.org/2000/svg">
<path d="M24.274 17.1572C26.0752 17.1572 27.5335 18.6165 27.5335 20.4177C27.5335 22.219 26.0742 23.6783 24.274 23.6783C22.4748 23.6783 21.0145 22.219 21.0145 20.4177C21.0145 18.6165 22.4748 17.1572 24.274 17.1572ZM24.274 21.4028C24.8154 21.4028 25.2591 20.9611 25.2591 20.4187C25.2591 19.8763 24.8154 19.4347 24.274 19.4347C23.7336 19.4347 23.291 19.8763 23.291 20.4187C23.291 20.9611 23.7326 21.4028 24.274 21.4028Z" fill="#EBBD1F"/>
<path d="M0.539352 17.7464L1.0726 13.4092C1.17742 12.5767 1.90504 11.9661 2.7446 12.0119L3.91286 12.0771L7.53977 8.80939C7.88984 8.49494 8.34066 8.32194 8.81081 8.32194L16.1796 8.32092C17.8333 8.32092 19.4371 8.88572 20.7265 9.92169L24.8378 13.225L30.3667 14.6069C31.077 14.784 31.5756 15.4231 31.5756 16.1548V17.7484C31.8097 17.7474 32 17.9367 32 18.1708V20.2783C32 20.5785 31.7568 20.8217 31.4566 20.8217H28.3354C28.3487 20.6864 28.3761 20.5571 28.3761 20.4187C28.3761 18.1524 26.5403 16.3186 24.275 16.3186C22.0097 16.3186 20.1749 18.1524 20.1749 20.4187C20.1749 20.5582 20.2034 20.6874 20.2166 20.8217H11.5737C11.5859 20.6864 11.6134 20.5571 11.6134 20.4187C11.6134 18.1524 9.77758 16.3186 7.51331 16.3186C5.247 16.3186 3.41422 18.1524 3.41422 20.4187C3.41422 20.5582 3.44067 20.6874 3.45492 20.8217H0.543425C0.243217 20.8217 0.00101662 20.5785 0.00101662 20.2783V18.2908C-0.00407028 17.9916 0.239145 17.7464 0.539352 17.7464ZM11.476 12.417L21.7563 12.937L19.7882 11.3545C18.7187 10.4946 17.3896 10.0265 16.0168 10.0265H11.476V12.417ZM9.76842 12.3305V10.0275H9.09982C8.8678 10.0275 8.64494 10.113 8.47295 10.2687L6.37456 12.1575L9.76842 12.3305Z" fill="#EBBD1F"/>
<path d="M7.51128 17.1572C9.31252 17.1572 10.7708 18.6165 10.7708 20.4177C10.7708 22.219 9.3115 23.6783 7.51128 23.6783C5.71106 23.6783 4.25175 22.219 4.25175 20.4177C4.25175 18.6165 5.71106 17.1572 7.51128 17.1572ZM7.51128 21.4028C8.05369 21.4028 8.49535 20.9611 8.49535 20.4187C8.49535 19.8763 8.05369 19.4347 7.51128 19.4347C6.97091 19.4347 6.52721 19.8763 6.52721 20.4187C6.52721 20.9611 6.96989 21.4028 7.51128 21.4028Z" fill="#EBBD1F"/>
</svg>
