<?xml version="1.0" standalone="no"?>
<!DOCTYPE svg PUBLIC "-//W3C//DTD SVG 20010904//EN"
 "http://www.w3.org/TR/2001/REC-SVG-20010904/DTD/svg10.dtd">
<svg version="1.0" xmlns="http://www.w3.org/2000/svg"
 width="151.000000pt" height="151.000000pt" viewBox="0 0 151.000000 151.000000"
 preserveAspectRatio="xMidYMid meet">
<metadata>
Created by potrace 1.14, written by Peter Selinger 2001-2017
</metadata>
<g transform="translate(0.000000,151.000000) scale(0.100000,-0.100000)"
fill="#000000" stroke="none">
<path d="M254 1175 c-17 -13 -17 -14 -1 -15 10 0 17 -8 17 -18 0 -18 65 -92
82 -92 4 0 19 -18 34 -39 19 -30 26 -53 26 -93 1 -69 -12 -92 -70 -129 -85
-54 -174 -30 -218 59 -23 44 -24 87 -4 148 12 36 30 46 30 16 0 -10 7 -27 15
-38 13 -17 14 -14 15 37 0 57 16 119 30 119 4 0 10 6 13 14 13 33 -99 -13
-146 -60 -57 -57 -72 -93 -72 -174 0 -86 14 -117 76 -178 64 -64 160 -87 250
-62 52 15 104 52 104 75 0 12 8 22 20 25 55 15 76 159 35 241 -36 71 -117 132
-186 142 -19 3 -29 10 -28 21 2 20 2 19 -22 1z"/>
<path d="M1190 1143 c-64 -22 -89 -43 -90 -76 0 -15 -3 -26 -7 -26 -28 5 -42
-6 -59 -42 -37 -83 -10 -229 42 -229 17 0 23 -6 26 -27 2 -23 14 -33 57 -55
63 -32 134 -37 201 -13 50 18 53 18 45 5 -6 -10 -1 -12 40 -12 69 0 63 -11 63
137 l-1 135 -132 0 -133 0 3 -42 c2 -24 4 -48 4 -54 1 -6 23 -10 55 -9 64 1
66 -15 5 -35 -108 -36 -193 61 -143 165 29 61 108 78 176 38 29 -17 102 -23
160 -14 4 0 7 37 6 81 l-1 80 -54 0 c-31 0 -52 -4 -48 -9 11 -19 -15 -21 -46
-5 -44 22 -115 26 -169 7z"/>
<path d="M790 1028 c0 -103 2 -120 14 -108 12 13 131 187 150 218 5 9 -13 12
-78 12 l-86 0 0 -122z"/>
<path d="M312 986 c13 -40 6 -75 -22 -107 l-20 -24 5 35 c5 30 4 32 -6 14 -6
-11 -29 -32 -51 -47 l-41 -26 36 -17 c113 -54 216 88 131 180 -33 35 -44 33
-32 -8z"/>
<path d="M609 847 c-46 -71 -46 -72 -23 -75 22 -3 24 -8 24 -53 0 -49 1 -50
28 -47 l27 3 1 123 c1 67 -1 122 -5 122 -3 0 -27 -33 -52 -73z"/>
<path d="M876 802 c-42 -66 -76 -123 -76 -128 0 -12 110 -11 111 1 1 6 2 30 3
55 1 41 3 45 24 42 15 -2 22 2 23 15 3 47 1 125 -3 129 -3 2 -40 -49 -82 -114z"/>
<path d="M290 475 c0 -14 4 -25 9 -25 4 0 6 11 3 25 -2 14 -6 25 -8 25 -2 0
-4 -11 -4 -25z"/>
<path d="M1182 480 c0 -14 2 -19 5 -12 2 6 2 18 0 25 -3 6 -5 1 -5 -13z"/>
<path d="M780 470 c-9 -6 -10 -10 -3 -10 6 0 15 5 18 10 8 12 4 12 -15 0z"/>
<path d="M204 454 c9 -8 16 -23 17 -32 0 -10 3 -12 5 -5 7 15 -13 53 -27 53
-6 0 -3 -7 5 -16z"/>
<path d="M463 463 c11 -3 17 -15 18 -36 l1 -32 7 30 c7 31 -2 45 -29 44 -11
-1 -10 -3 3 -6z"/>
<path d="M510 466 c0 -2 7 -7 16 -10 8 -3 12 -2 9 4 -6 10 -25 14 -25 6z"/>
<path d="M735 460 c-3 -6 1 -7 9 -4 18 7 21 14 7 14 -6 0 -13 -4 -16 -10z"/>
<path d="M880 461 c14 -4 25 -14 25 -23 0 -23 12 -32 12 -10 0 25 -16 42 -41
41 -19 -1 -18 -2 4 -8z"/>
<path d="M986 461 c-4 -5 3 -7 14 -4 23 6 26 13 6 13 -8 0 -17 -4 -20 -9z"/>
<path d="M1308 463 c7 -3 16 -2 19 1 4 3 -2 6 -13 5 -11 0 -14 -3 -6 -6z"/>
<path d="M1332 442 c-11 -25 -11 -25 4 -10 9 9 15 21 13 27 -2 6 -10 -2 -17
-17z"/>
<path d="M606 447 c3 -10 9 -15 12 -12 3 3 0 11 -7 18 -10 9 -11 8 -5 -6z"/>
<path d="M1210 450 c-9 -6 -10 -10 -3 -10 6 0 15 5 18 10 8 12 4 12 -15 0z"/>
<path d="M1181 413 c1 -23 3 -29 6 -15 2 12 9 20 14 17 14 -9 11 5 -6 21 -13
14 -15 11 -14 -23z"/>
<path d="M151 424 c0 -12 7 -28 17 -35 15 -12 16 -12 6 1 -7 8 -14 24 -17 35
-4 19 -5 19 -6 -1z"/>
<path d="M292 410 c0 -19 2 -27 5 -17 2 9 2 25 0 35 -3 9 -5 1 -5 -18z"/>
<path d="M352 410 c0 -19 2 -27 5 -17 2 9 2 25 0 35 -3 9 -5 1 -5 -18z"/>
<path d="M645 429 c-4 -6 -5 -12 -2 -15 2 -3 7 2 10 11 7 17 1 20 -8 4z"/>
<path d="M727 431 c6 -7 9 -19 7 -26 -3 -7 2 -15 12 -19 14 -5 15 -4 4 9 -11
13 -9 15 11 16 21 1 21 2 4 6 -11 3 -27 10 -35 16 -12 9 -13 8 -3 -2z"/>
<path d="M990 436 c0 -3 9 -10 20 -16 11 -6 20 -8 20 -6 0 3 -9 10 -20 16 -11
6 -20 8 -20 6z"/>
<path d="M868 423 c7 -3 16 -2 19 1 4 3 -2 6 -13 5 -11 0 -14 -3 -6 -6z"/>
<path d="M621 415 c1 -19 18 -51 18 -35 0 8 -4 22 -9 30 -5 8 -9 11 -9 5z"/>
<path d="M850 401 c0 -10 19 -25 25 -20 1 2 -3 10 -11 17 -8 7 -14 8 -14 3z"/>
<path d="M1226 397 c3 -10 9 -15 12 -12 3 3 0 11 -7 18 -10 9 -11 8 -5 -6z"/>
<path d="M1307 403 c-10 -9 -9 -23 1 -23 5 0 9 7 9 15 0 17 -1 18 -10 8z"/>
<path d="M200 390 c-9 -6 -10 -10 -3 -10 6 0 15 5 18 10 8 12 4 12 -15 0z"/>
<path d="M530 389 c0 -5 5 -7 10 -4 6 3 10 8 10 11 0 2 -4 4 -10 4 -5 0 -10
-5 -10 -11z"/>
<path d="M1000 390 l-25 -8 28 -1 c15 -1 27 4 27 9 0 6 -1 10 -2 9 -2 -1 -14
-5 -28 -9z"/>
<path d="M782 376 c7 -8 15 -12 17 -11 5 6 -10 25 -20 25 -5 0 -4 -6 3 -14z"/>
<path d="M721 363 c-1 -16 5 -23 17 -23 10 0 13 3 6 8 -6 4 -14 14 -17 22 -4
10 -6 8 -6 -7z"/>
</g>
</svg>
